# xmcd CD database file
#
# Track frame offsets:
#	150
#	50137
#	99965
#	160655
#
# Disc length: 2958 seconds
#
# Revision: 0
# Processed by: cddbd v1.5.1PL0 Copyright (c) Steve Scherf et al.
# Submitted via: CDex 1.51
#
DISCID=280b8c04
DTITLE=Wes Montgomery - Full House
DYEAR=1900
DGENRE=Jazz
TTITLE0=To When
TTITLE1=Full House
TTITLE2=Twisted Blues
TTITLE3=Blue'n'Boogie/West Coast Blues
EXTD=
EXTT0=
EXTT1=
EXTT2=
EXTT3=
PLAYORDER=
